<svg xmlns="http://www.w3.org/2000/svg" viewBox="0 0 64 64"><path d="M3.91 19.56h7.21a1 1 0 1 0 0-2h-2.6v-2.37h17.59l-7.36 15.89a1 1 0 0 0 .49 1.33 1 1 0 0 0 .42.09 1 1 0 0 0 .91-.58l7.75-16.73H31v5.6h-2.09a.94.94 0 0 0-.94.94v6.77a.94.94 0 0 0 .94.93h6.18a.94.94 0 0 0 .91-.93v-6.77a.94.94 0 0 0-.94-.94H33v-5.6h2.68l7.75 16.73a1 1 0 0 0 .91.58 1 1 0 0 0 .42-.09 1 1 0 0 0 .49-1.33l-7.36-15.89h17.59v2.37h-2.6a1 1 0 0 0 0 2h7.21a1 1 0 0 0 0-2h-2.61V9.09a1 1 0 1 0-2 0v4.1H37.59V5.35a1 1 0 0 0-1-1h-9.18a1 1 0 0 0-1 1v7.84H8.52v-4.1a1 1 0 0 0-2 0v8.47H3.91a1 1 0 0 0 0 2zm24.5-13.21h7.18v6.84h-7.18zM60 57.65h-2l-5.47-8.21a1 1 0 0 0-.83-.44h-2.4l-4.48-4.84a1 1 0 0 0-.7-.32.89.89 0 0 0-.72.27l-3.21 3L33 38.23a1 1 0 0 0-.78-.38 1 1 0 0 0-.78.38l-6.91 8.66-3.43-4.08a1 1 0 0 0-1.5 0L5.86 57.65H4a1 1 0 0 0 0 2h56a1 1 0 0 0 0-2zM20.3 45l2.86 3.36a.65.65 0 0 0 .16.13l-3.22 4a1 1 0 0 0 .16 1.4 1 1 0 0 0 1.4-.16l10.6-13.29 10.28 12.82a1 1 0 0 0 1.4.15A1 1 0 0 0 44.1 52l-2.65-3.3L44 46.26l4.09 4.42a1 1 0 0 0 .73.32h2.35l4.42 6.65H8.58z" fill="#fff" data-name="图层 4"/></svg>